<svg xmlns="http://www.w3.org/2000/svg" version="1.1" xmlns:xlink="http://www.w3.org/1999/xlink" xmlns:svgjs="http://svgjs.dev/svgjs" width="1000" height="1000" viewBox="0 0 1000 1000"><rect width="1000" height="1000" fill="#ffffff"></rect><g transform="matrix(0.7,0,0,0.7,149.57575757575756,282.1265587044535)"><svg viewBox="0 0 396 247" data-background-color="#ffffff" preserveAspectRatio="xMidYMid meet" height="623" width="1000" xmlns="http://www.w3.org/2000/svg" xmlns:xlink="http://www.w3.org/1999/xlink"><defs></defs><g id="tight-bounds" transform="matrix(1,0,0,1,0.2400000000000091,-0.09999999999999432)"><svg viewBox="0 0 395.52 247.2" height="247.2" width="395.52"><g><svg></svg></g><g><svg viewBox="0 0 395.52 247.2" height="247.2" width="395.52"><g transform="matrix(1,0,0,1,75.54432,112.43718887673323)"><svg viewBox="0 0 244.43135999999998 22.325622246533523" height="22.325622246533523" width="244.43135999999998"><g><svg viewBox="0 0 244.43135999999998 22.325622246533523" height="22.325622246533523" width="244.43135999999998"><g><svg viewBox="0 0 244.43135999999998 22.325622246533523" height="22.325622246533523" width="244.43135999999998"><g><svg viewBox="0 0 244.43135999999998 22.325622246533523" height="22.325622246533523" width="244.43135999999998"><g><svg viewBox="0 0 244.43135999999998 22.325622246533523" height="22.325622246533523" width="244.43135999999998"><g><svg viewBox="0 0 244.43135999999998 22.325622246533523" height="22.325622246533523" width="244.43135999999998"><g transform="matrix(1,0,0,1,0,0)"><svg width="244.43135999999998" viewBox="4.599999904632568 -35.45000076293945 393.0199890136719 35.900001525878906" height="22.325622246533523" data-palette-color="#61777f"><path d="M25.05 0L4.6 0 4.6-35 25.05-35 25.05-33.3 6.4-33.3 6.4-18.75 22.05-18.75 22.05-17.05 6.4-17.05 6.4-1.7 25.05-1.7 25.05 0ZM34 0L32.2 0 32.2-35 36.45-35 53.1-1.7 54.45-1.7 54.45-35 56.25-35 56.25 0 52 0 35.3-33.3 34-33.3 34 0ZM76.64-1.7L85.94-35 87.75-35 77.94 0 72.14 0 62.34-35 64.14-35 73.44-1.7 76.64-1.7ZM95.87-5.43Q97.09-3.25 99.39-2.25 101.69-1.25 105.27-1.25 108.84-1.25 111.12-2.18 113.39-3.1 114.62-5.23 115.84-7.35 116.29-10.15 116.74-12.95 116.74-17.35L116.74-17.35Q116.74-25.75 114.32-29.75 111.89-33.75 105.24-33.75L105.24-33.75Q98.29-33.75 95.89-29.4L95.89-29.4Q94.69-27.2 94.22-24.38 93.74-21.55 93.74-17.32 93.74-13.1 94.19-10.35 94.64-7.6 95.87-5.43ZM94.49-4.1L94.49-4.1Q92.99-6.5 92.42-9.63 91.84-12.75 91.84-17.35L91.84-17.35Q91.84-26.55 94.74-31 97.64-35.45 105.24-35.45 112.84-35.45 115.74-31.03 118.64-26.6 118.64-17.2 118.64-7.8 115.82-3.68 112.99 0.45 105.14 0.45 97.29 0.45 94.49-4.1ZM147.44-15.65L139.94-15.65 139.94-17.35 149.24-17.35 149.24-0.8Q142.79 0.45 138.24 0.45L138.24 0.45Q130.89 0.45 128.02-4 125.14-8.45 125.14-17.35L125.14-17.35Q125.14-21.7 125.72-24.83 126.29-27.95 127.69-30.45L127.69-30.45Q130.49-35.45 138.24-35.45L138.24-35.45Q142.69-35.45 147.69-34.5L147.69-34.5 149.24-34.2 149.09-32.45Q142.79-33.75 138.79-33.75 134.79-33.75 132.54-32.65 130.29-31.55 129.12-29.25 127.94-26.95 127.49-24.18 127.04-21.4 127.04-17.38 127.04-13.35 127.52-10.58 127.99-7.8 129.19-5.6L129.19-5.6Q131.54-1.25 138.24-1.25L138.24-1.25Q141.94-1.25 147.44-2.25L147.44-2.25 147.44-15.65ZM159.04-35L159.04-9.8Q159.04-5.25 161.49-3.25 163.94-1.25 168.71-1.25 173.49-1.25 176.01-3.23 178.54-5.2 178.54-9.8L178.54-9.8 178.54-35 180.34-35 180.34-9.8Q180.34-4.35 177.36-1.95 174.39 0.45 168.71 0.45 163.04 0.45 160.14-1.95 157.24-4.35 157.24-9.8L157.24-9.8 157.24-35 159.04-35ZM209.79 0L189.34 0 189.34-35 209.79-35 209.79-33.3 191.14-33.3 191.14-18.75 206.79-18.75 206.79-17.05 191.14-17.05 191.14-1.7 209.79-1.7 209.79 0ZM248.23-2.25L248.38-0.55Q243.38 0.45 239.36 0.45 235.33 0.45 232.86-0.73 230.38-1.9 229.03-4.35 227.68-6.8 227.18-9.85 226.68-12.9 226.68-16.9 226.68-20.9 226.96-23.45 227.23-26 228.01-28.4 228.78-30.8 230.13-32.25L230.13-32.25Q233.13-35.45 239.13-35.45L239.13-35.45Q243.53-35.45 248.38-34.5L248.38-34.5 248.23-32.75Q243.43-33.75 239.91-33.75 236.38-33.75 234.43-32.95 232.48-32.15 231.36-30.88 230.23-29.6 229.61-27.38 228.98-25.15 228.78-22.9 228.58-20.65 228.58-17.35 228.58-14.05 228.78-11.8 228.98-9.55 229.63-7.4 230.28-5.25 231.43-4L231.43-4Q233.98-1.25 239.13-1.25L239.13-1.25Q243.03-1.25 248.23-2.25L248.23-2.25ZM253.78 0L251.98 0 262.73-35 268.03-35 278.78 0 276.98 0 273.73-10.75 257.03-10.75 253.78 0ZM266.78-33.3L263.98-33.3 257.58-12.45 273.18-12.45 266.78-33.3ZM297.53-12.85L297.53-12.85 286.58-12.85 286.58 0 284.78 0 284.78-35 297.53-35Q302.93-35 305.4-32.38 307.88-29.75 307.88-24.25L307.88-24.25Q307.88-12.85 297.53-12.85ZM286.58-33.3L286.58-14.55 297.53-14.55Q305.98-14.55 305.98-24.25L305.98-24.25Q305.98-28.85 303.98-31.08 301.98-33.3 297.53-33.3L297.53-33.3 286.58-33.3ZM316.32 0L314.52 0 314.52-35 316.32-35 316.32 0ZM333.22-33.3L321.57-33.3 321.57-35 346.57-35 346.57-33.3 335.02-33.3 335.02 0 333.22 0 333.22-33.3ZM347.77 0L345.97 0 356.72-35 362.02-35 372.77 0 370.97 0 367.72-10.75 351.02-10.75 347.77 0ZM360.77-33.3L357.97-33.3 351.57-12.45 367.17-12.45 360.77-33.3ZM397.62-1.7L397.62 0 378.77 0 378.77-35 380.57-35 380.57-1.7 397.62-1.7Z" opacity="1" transform="matrix(1,0,0,1,0,0)" fill="#000000" class="undefined-text-0" data-fill-palette-color="primary" id="text-0"></path></svg></g></svg></g></svg></g></svg></g></svg></g></svg></g></svg></g><path d="M169.6 106.437L169.6 40.92 4.239 40.92 4.239 206.28 169.6 206.28 169.6 140.763 167.587 140.763 167.587 204.267 6.252 204.267 6.252 42.933 167.587 42.933 167.587 106.437Z" fill="#000000" stroke="transparent" data-fill-palette-color="primary"></path></svg></g></svg><rect width="395.52" height="247.2" fill="none" stroke="none" visibility="hidden"></rect></g></svg></g></svg>