<?xml version="1.0" encoding="utf-8"?>
<!-- Generator: Adobe Illustrator 17.0.0, SVG Export Plug-In . SVG Version: 6.00 Build 0)  -->
<!DOCTYPE svg PUBLIC "-//W3C//DTD SVG 1.1//EN" "http://www.w3.org/Graphics/SVG/1.1/DTD/svg11.dtd">
<svg version="1.1" id="Layer_1" xmlns="http://www.w3.org/2000/svg" xmlns:xlink="http://www.w3.org/1999/xlink" x="0px" y="0px"
	 width="295px" height="92px" viewBox="0 0 295 92" enable-background="new 0 0 295 92" xml:space="preserve">
<g>
	<polygon fill="#5A5A58" points="46.11,81.02 11,46 46.11,10.98 60.92,25.74 40.61,46 46.1,51.49 71.92,25.74 46.11,0 0,46 
		46.11,92 92.23,46 86.73,40.52 	"/>
	<polygon fill="#5A5A58" points="31.31,46 51.61,25.74 46.11,20.26 20.31,46 46.11,71.75 82.07,35.87 76.57,30.39 46.11,60.77 	"/>
	<path fill="#5A5A58" d="M124.11,50.68c-0.55,1.31-1.15,3.55-1.15,3.55s-0.59-2.24-1.13-3.55l-7.31-17.81h-3.04l11.22,26.54h0.47
		l11.05-26.54h-2.85L124.11,50.68z"/>
	<path fill="#5A5A58" d="M156.27,56.94c-6.18,0-10.71-4.68-10.71-10.94s4.53-10.94,10.71-10.94c6.21,0,10.75,4.68,10.75,10.94
		S162.48,56.94,156.27,56.94z M156.27,32.55c-7.55,0-13.65,5.53-13.65,13.45c0,7.93,6.1,13.45,13.65,13.45
		c7.58,0,13.67-5.52,13.67-13.45C169.94,38.08,163.85,32.55,156.27,32.55z"/>
	<path fill="#5A5A58" d="M194.64,49.13h7.9v5.41c-1.63,1.32-4.22,2.4-7.85,2.4c-6.46,0-10.99-4.68-10.99-10.94
		s4.5-10.94,10.75-10.94c3.28,0,5.63,1.01,7.35,2.78l1.92-1.89c-2.19-2.32-5.43-3.4-9.27-3.4c-7.73,0-13.68,5.54-13.68,13.45
		c0,7.93,5.99,13.45,13.92,13.45c5,0,8.56-1.74,10.51-3.64v-9.15h-10.56L194.64,49.13L194.64,49.13z"/>
	<path fill="#5A5A58" d="M236.78,32.87h-2.81v17.11c0,4.68-2.62,7-6.73,7c-4.14,0-6.72-2.32-6.72-7V32.87h-2.81v17.31
		c0,6.14,4.1,9.27,9.53,9.27c5.4,0,9.54-3.13,9.54-9.27V32.87z"/>
	<polygon fill="#5A5A58" points="267.15,56.67 253.24,56.67 253.24,50.1 265.15,50.1 265.15,47.67 253.24,47.67 253.24,35.34 
		266.61,35.34 266.61,32.87 250.43,32.87 250.43,59.13 267.15,59.13 	"/>
	<polygon fill="#5A5A58" points="242.18,73.6 237.67,73.6 237.67,68.86 236.78,68.86 236.78,77.27 237.67,77.27 237.67,74.42 
		242.18,74.42 242.18,77.27 243.07,77.27 243.07,68.86 242.18,68.86 	"/>
	<path fill="#5A5A58" d="M253.55,76.57c-1.96,0-3.4-1.5-3.4-3.5s1.44-3.5,3.4-3.5c1.97,0,3.4,1.5,3.4,3.5S255.52,76.57,253.55,76.57
		z M253.55,68.76c-2.39,0-4.33,1.78-4.33,4.31s1.94,4.3,4.33,4.3c2.4,0,4.33-1.77,4.33-4.3S255.95,68.76,253.55,68.76z"/>
	<path fill="#5A5A58" d="M268.07,73.65l-3.91-4.89h-0.13v8.51h0.86v-5.55c0-0.38-0.04-0.96-0.04-0.96s0.33,0.54,0.61,0.87l2.51,3.22
		h0.15l2.55-3.22c0.28-0.33,0.59-0.87,0.59-0.87s-0.03,0.58-0.03,0.96v5.55h0.87v-8.51h-0.14L268.07,73.65z"/>
	<polygon fill="#5A5A58" points="279.62,74.38 283.4,74.38 283.4,73.6 279.62,73.6 279.62,69.66 283.86,69.66 283.86,68.87 
		278.72,68.87 278.72,77.27 284.03,77.27 284.03,76.48 279.62,76.48 	"/>
	<path fill="#5A5A58" d="M292.88,72.57l-0.67-0.3c-0.94-0.44-1.34-0.77-1.34-1.51c0-0.72,0.51-1.2,1.34-1.2
		c0.79,0,1.24,0.39,1.56,0.91l0.72-0.44c-0.45-0.75-1.15-1.27-2.28-1.27c-1.26,0-2.22,0.81-2.22,2.02c0,1.17,0.66,1.76,1.86,2.3
		l0.67,0.31c1.05,0.47,1.59,0.9,1.59,1.76c0,0.88-0.77,1.43-1.75,1.43c-1.19,0-1.78-0.61-2.17-1.31l-0.74,0.39
		c0.45,0.9,1.32,1.71,2.93,1.71c1.52,0,2.62-0.84,2.62-2.22C295,73.88,294.28,73.19,292.88,72.57z"/>
</g>
</svg>
